<?xml version="1.0" encoding="UTF-8"?>
<svg id="Livello_1" data-name="Livello 1" xmlns="http://www.w3.org/2000/svg" viewBox="0 0 15.51 13.76">
  <path d="M13.37,12.67c-1.71-.98-3.65-1.49-5.61-1.49s-3.91,.52-5.61,1.49l-1.03,.59c-.22-.03-.41-.16-.52-.36-.13-.23-.13-.51,0-.74L7.12,.87c.13-.23,.37-.37,.64-.37s.5,.14,.64,.37l6.52,11.29c.13,.23,.13,.51,0,.74-.11,.2-.3,.32-.52,.36l-1.03-.59Z" style="fill: red;"/>
  <path d="M7.76,1c.06,0,.15,.02,.2,.12l6.52,11.29c.06,.1,.03,.18,0,.24-.01,.02-.03,.04-.04,.06l-.82-.47c-1.78-1.02-3.81-1.56-5.86-1.56s-4.08,.54-5.86,1.56l-.82,.47s-.03-.04-.04-.06c-.03-.05-.06-.14,0-.24L7.55,1.12c.06-.1,.14-.12,.2-.12m0-1c-.42,0-.83,.21-1.07,.62L.17,11.91c-.48,.82,.12,1.85,1.07,1.85l1.16-.66c1.66-.95,3.51-1.43,5.36-1.43s3.7,.48,5.36,1.43l1.16,.66c.95,0,1.55-1.03,1.07-1.85L8.83,.62c-.24-.41-.65-.62-1.07-.62h0Z" style="fill: red;"/>
</svg>